<svg width="270" height="69" viewBox="0 0 270 69" fill="none" xmlns="http://www.w3.org/2000/svg">
<path d="M100.423 50.384C104.327 50.384 107.559 48.976 109.671 46.384L106.343 43.312C104.839 45.072 102.951 45.968 100.711 45.968C96.5189 45.968 93.5429 43.024 93.5429 38.8C93.5429 34.576 96.5189 31.632 100.711 31.632C102.951 31.632 104.839 32.528 106.343 34.256L109.671 31.184C107.559 28.624 104.327 27.216 100.455 27.216C93.4789 27.216 88.2949 32.048 88.2949 38.8C88.2949 45.552 93.4789 50.384 100.423 50.384ZM112.82 50H117.812V26.256H112.82V50ZM134.797 32.784V41.296C134.797 44.464 133.133 45.936 130.829 45.936C128.621 45.936 127.341 44.656 127.341 41.776V32.784H122.349V42.512C122.349 47.824 125.389 50.256 129.709 50.256C131.821 50.256 133.741 49.456 135.053 47.952V50H139.789V32.784H134.797ZM154.589 32.528C152.445 32.528 150.685 33.2 149.405 34.608V26.256H144.413V50H149.181V48.016C150.429 49.52 152.285 50.256 154.589 50.256C159.421 50.256 163.165 46.8 163.165 41.392C163.165 35.984 159.421 32.528 154.589 32.528ZM153.725 46.16C151.229 46.16 149.341 44.368 149.341 41.392C149.341 38.416 151.229 36.624 153.725 36.624C156.221 36.624 158.109 38.416 158.109 41.392C158.109 44.368 156.221 46.16 153.725 46.16ZM192.658 50H198.098L188.082 27.6H182.962L172.978 50H178.29L180.274 45.2H190.674L192.658 50ZM181.938 41.264L185.49 32.688L189.042 41.264H181.938ZM210.246 32.528C207.942 32.528 206.086 33.264 204.838 34.768V32.784H200.07V56.208H205.062V48.176C206.342 49.584 208.102 50.256 210.246 50.256C215.078 50.256 218.822 46.8 218.822 41.392C218.822 35.984 215.078 32.528 210.246 32.528ZM209.382 46.16C206.886 46.16 204.998 44.368 204.998 41.392C204.998 38.416 206.886 36.624 209.382 36.624C211.878 36.624 213.766 38.416 213.766 41.392C213.766 44.368 211.878 46.16 209.382 46.16ZM232.339 32.528C230.035 32.528 228.179 33.264 226.931 34.768V32.784H222.163V56.208H227.155V48.176C228.435 49.584 230.195 50.256 232.339 50.256C237.171 50.256 240.915 46.8 240.915 41.392C240.915 35.984 237.171 32.528 232.339 32.528ZM231.475 46.16C228.979 46.16 227.091 44.368 227.091 41.392C227.091 38.416 228.979 36.624 231.475 36.624C233.971 36.624 235.859 38.416 235.859 41.392C235.859 44.368 233.971 46.16 231.475 46.16Z" fill="url(#paint0_linear_135_55)"/>
<path d="M8.62512 37.375H11.5001V57.5C11.5001 60.6711 14.079 63.25 17.2501 63.25H51.7501C54.9212 63.25 57.5001 60.6711 57.5001 57.5V37.375H60.3751C60.9436 37.3748 61.4994 37.2062 61.9721 36.8902C62.4447 36.5743 62.8131 36.1254 63.0307 35.6001C63.2482 35.0748 63.3052 34.4969 63.1943 33.9393C63.0834 33.3816 62.8097 32.8694 62.4077 32.4673L36.5327 6.59234C36.266 6.32512 35.9491 6.11313 35.6004 5.96848C35.2516 5.82384 34.8777 5.74939 34.5001 5.74939C34.1225 5.74939 33.7487 5.82384 33.3999 5.96848C33.0511 6.11313 32.7343 6.32512 32.4675 6.59234L6.59249 32.4673C6.19054 32.8694 5.91682 33.3816 5.80594 33.9393C5.69506 34.4969 5.75199 35.0748 5.96955 35.6001C6.1871 36.1254 6.5555 36.5743 7.02818 36.8902C7.50085 37.2062 8.05659 37.3748 8.62512 37.375ZM34.5001 12.6902L51.7501 29.9402V43.125L51.753 57.5H17.2501V29.9402L34.5001 12.6902Z" fill="#FDC830"/>
<path d="M34.5 51.7501C45.1462 51.7501 48.5904 41.5754 48.7313 41.1442L43.2688 39.3588C43.2458 39.4249 41.0234 46.0001 34.5 46.0001C28.0658 46.0001 25.8175 39.6147 25.7284 39.3416L20.2688 41.1442C20.4097 41.5754 23.8539 51.7501 34.5 51.7501Z" fill="#FDC830"/>
<defs>
<linearGradient id="paint0_linear_135_55" x1="100.5" y1="0.99999" x2="256.5" y2="90" gradientUnits="userSpaceOnUse">
<stop stop-color="#FDC830"/>
<stop offset="1" stop-color="#F37335"/>
</linearGradient>
</defs>
</svg>
