<?xml version="1.0" encoding="UTF-8" standalone="no"?>
<svg
   xmlns:dc="http://purl.org/dc/elements/1.1/"
   xmlns:cc="http://creativecommons.org/ns#"
   xmlns:rdf="http://www.w3.org/1999/02/22-rdf-syntax-ns#"
   xmlns:svg="http://www.w3.org/2000/svg"
   xmlns="http://www.w3.org/2000/svg"
   viewBox="0 0 1600 1600"
   height="150"
   width="150"
   style="background-color:white;"
   xml:space="preserve"
   id="svg2"
   version="1.1"><metadata
     id="metadata8"><rdf:RDF><cc:Work
         rdf:about=""><dc:format>image/svg+xml</dc:format><dc:type
           rdf:resource="http://purl.org/dc/dcmitype/StillImage" /></cc:Work></rdf:RDF></metadata><defs
     id="defs6"><clipPath
       id="clipPath18"
       clipPathUnits="userSpaceOnUse"><path
         id="path16"
         d="M 0,1200 H 1200 V 0 H 0 Z" /></clipPath><clipPath
       id="clipPath86"
       clipPathUnits="userSpaceOnUse"><path
         id="path84"
         d="M 0,1200 H 1200 V 0 H 0 Z" /></clipPath></defs><g
     transform="matrix(1.3333333,0,0,-1.3333333,0,1600)"
     id="g10"><g
       id="g12"><g
         clip-path="url(#clipPath18)"
         id="g14"><g
           transform="translate(552.7881,670)"
           id="g20"><path
             id="path22"
             style="fill:#ffffff;fill-opacity:1;fill-rule:nonzero;stroke:none"
             d="m 0,0 h -78.68 l 2.98,8.085 c 1.86,0.4 3.75,0.837 5.66,1.187 10.77,1.97 22.18,3.149 33.85,3.529 10.19,0.41 20.9,-0.021 31.3,-0.691 z" /></g><g
           transform="translate(655,688.2095)"
           id="g24"><path
             id="path26"
             style="fill:#ffffff;fill-opacity:1;fill-rule:nonzero;stroke:none"
             d="m 0,0 v -26.57 c -9,-2.24 -18.486,-3.7 -27.736,-4.54 -3.94,-0.4 -8.008,-0.69 -11.948,-0.89 -9.1,-0.47 -18.259,-0.48 -27.269,-0.33 -9.53,0.26 -19.129,0.73 -28.479,1.41 -3.29,0.24 -6.565,0.51 -9.795,0.8 -6.05,0.52 -12.058,1.03 -17.998,1.54 -5.84,0.41 -11.613,0.75 -17.273,1.02 -11.31,0.47 -22.192,0.55 -32.422,0.05 -3.09,-0.15 -6.121,-0.36 -9.081,-0.63 -3.17,-0.27 -6.26,-0.61 -9.27,-1.01 -3.471,-0.47 -6.595,-1.03 -9.815,-1.67 -2.46,-0.5 -4.914,-1.05 -6.914,-1.65 v 19.38 c 0,0.19 0.614,0.38 1.044,0.56 8.08,3.5 16.892,6.26 26.402,8.36 2.11,0.46 4.191,0.89 6.361,1.29 10.77,1.97 22.151,3.12 33.821,3.5 10.38,0.42 21.275,0.07 31.855,-0.63 1.89,-0.12 3.762,-0.26 5.622,-0.4 12.33,-0.82 24.547,-1.74 36.867,-2.24 4.66,-0.23 9.308,-0.39 13.918,-0.48 7.53,-0.17 15.195,-0.14 22.465,0.07 C -19.395,-2.68 -10,-1.82 0,0" /></g><g
           transform="translate(727.208,725.8395)"
           id="g28"><path
             id="path30"
             style="fill:#161451;fill-opacity:1;fill-rule:nonzero;stroke:none"
             d="m 0,0 c -0.33,0.23 -0.635,0.45 -0.965,0.67 l -9.243,6.139 V 6.81 l -7.366,4.85 -5.738,3.79 -30.829,20.41 c -44.88,29.35 -31.414,73.945 5.856,73.945 55.209,0 76.275,-50.644 82.825,-69.644 h 4.252 v 59.889 c 0,0 -28.876,16.58 -87.876,16.58 -54.55,0 -71.058,-26.24 -71.058,-26.24 -28.65,-37.62 -10.139,-72.14 38.851,-102.84 l 29.552,-18.595 c -0.004,-10e-4 -0.013,-0.003 -0.017,-0.005 l 20.838,-13.1 2.829,-1.78 c 42.12,-30.73 30.8,-80.77 -6.12,-80.77 -40.86,0 -63.201,26.87 -75.831,51.07 -9.09,-0.47 -18.18,-0.48 -27.18,-0.33 -9.33,0.25 -18.7,0.71 -27.86,1.37 3.98,-6.21 9.5,-13.34 16.99,-20.52 0.35,-0.33 0.69,-0.47 1.04,-0.79 0.01,0 0.02,0.05 0.03,0.05 1.02,-0.95 2.08,-1.86 3.17,-2.81 4.12,-3.59 8.76,-7.08 13.99,-10.39 0.16,-0.1 0.32,-0.19 0.48,-0.29 0.23,-0.16 0.45,-0.3 0.68,-0.44 0.3,-0.21 0.63,-0.4 0.93,-0.58 0.19,-0.11 0.38,-0.23 0.56,-0.32 0.03,-0.02 0.05,-0.04 0.08,-0.05 -0.04,0.01 -0.08,0.03 -0.12,0.05 l -0.34,0.09 c 0.1,-0.03 0.19,-0.06 0.27,-0.09 16.6,-10.06 38.78,-18.17 68.05,-20.82 0.78,-0.07 1.57,-0.13 2.38,-0.2 0.77,-0.05 1.56,-0.11 2.34,-0.17 6.3,-0.44 13.12,-0.7 20.3,-0.7 55.56,0 71.84,28.31 71.84,28.31 C 63.29,-66.93 44.82,-29.93 0,0" /></g><g
           transform="translate(470.404,653.5895)"
           id="g32"><path
             id="path34"
             style="fill:#161451;fill-opacity:1;fill-rule:nonzero;stroke:none"
             d="m 0,0 c -1.5,-0.16 -3.098,-0.34 -4.558,-0.53 -2.1,-0.29 -3.993,-0.6 -6.003,-0.96 -24,-51.65 -32.843,-49.25 -38.843,-49.85 v -6.249 h 83 v 6.249 C -8.404,-53.42 -4.36,-17.71 0,0" /></g><g
           transform="translate(604.588,678.9747)"
           id="g36"><path
             id="path38"
             style="fill:#161451;fill-opacity:1;fill-rule:nonzero;stroke:none"
             d="m 0,0 c -0.07,0.09 -0.14,0.025 -0.21,0.025 h -0.21 c -0.01,0 -0.02,0.825 -0.02,0.845 -0.03,0.09 -0.07,-0.103 -0.12,-0.013 -0.69,1.68 -1.4,3.314 -2.14,5.104 -12.93,31.37 -32.88,79.064 -63.59,153.064 h -5.85 L -131.26,4.95 l -1,-2.563 c -0.68,-1.64 -1.35,-3.221 -2.01,-4.801 1.98,0.52 3.98,1.014 6.01,1.464 0.25,0.05 0.5,0.118 0.76,0.168 l 2.66,7.133 31.98,85.682 33.74,-82.809 2.43,-5.96 c 0.19,-0.02 0.38,-0.029 0.57,-0.039 1.89,-0.12 3.77,-0.26 5.63,-0.4 12.33,-0.82 24.55,-1.798 36.87,-2.298 C -9.06,0.297 -4.51,0.09 0,0" /></g><g
           transform="translate(675.4481,694.7894)"
           id="g40"><path
             id="path42"
             style="fill:#1990f2;fill-opacity:1;fill-rule:nonzero;stroke:none"
             d="M 0,0 20.84,-13.1 C 11.72,-20.31 0.7,-26.15 -11,-30 c -12.39,-4.1 -25.4,-6.51 -38.42,-7.69 -3.94,-0.4 -7.89,-0.69 -11.83,-0.89 -9.1,-0.47 -18.2,-0.48 -27.21,-0.33 -9.53,0.26 -19.1,0.73 -28.45,1.41 -3.29,0.24 -6.55,0.51 -9.78,0.8 -6.05,0.52 -12.05,1.03 -17.99,1.54 -5.84,0.41 -11.61,0.75 -17.27,1.02 -11.31,0.47 -22.19,0.55 -32.42,0.05 -3.09,-0.15 -6.12,-0.36 -9.08,-0.63 -3.17,-0.27 -6.26,-0.61 -9.27,-1.01 -3.47,-0.47 -6.83,-1.03 -10.05,-1.67 -8.61,-1.76 -16.32,-4.08 -22.76,-7.06 -6.49,-2.9 -11.71,-6.38 -15.65,-9.82 -3.91,-3.45 -6.61,-6.78 -8.16,-9.26 -1.57,-2.47 -2.16,-4 -2.16,-4 0,0 -0.04,0.4 -0.02,1.2 0.01,0.79 0.06,1.97 0.34,3.5 0.5,3.05 1.72,7.56 4.61,12.81 2.92,5.19 7.49,11.1 13.96,16.48 6.4,5.47 14.57,10.45 23.97,14.44 8.08,3.5 17.01,6.26 26.52,8.36 2.11,0.46 4.25,0.89 6.42,1.29 10.77,1.97 22.18,3.12 33.85,3.5 10.38,0.42 21.29,0.07 31.87,-0.63 1.89,-0.12 3.77,-0.26 5.63,-0.4 12.33,-0.82 24.55,-1.74 36.87,-2.24 4.66,-0.23 9.31,-0.39 13.92,-0.48 7.53,-0.17 14.96,-0.14 22.23,0.07 11.73,0.43 23.03,1.5 33.38,3.92 2.64,0.47 5.08,1.3 7.62,1.92 2.4,0.86 4.9,1.52 7.17,2.53 1.07,0.4 2.13,0.82 3.16,1.27" /></g><g
           transform="translate(736.6581,771.2195)"
           id="g44"><path
             id="path46"
             style="fill:#00a3ff;fill-opacity:1;fill-rule:nonzero;stroke:none"
             d="m 0,0 c 0,0 -0.14,-1.6 -0.41,-4.58 -0.29,-2.99 -0.8,-7.36 -1.7,-12.93 -0.98,-5.54 -2.32,-12.29 -4.69,-19.9 -0.76,-2.56 -1.64,-5.23 -2.65,-7.97 -0.33,0.23 -0.67,0.45 -1,0.67 l -9.28,6.14 c 1.14,1.81 2.22,3.6 3.24,5.35 1.97,3.2 3.5,6.38 5.13,9.24 1.48,2.96 2.83,5.67 4.05,8.12 2.34,4.99 4.26,8.93 5.39,11.68 C -0.67,-1.46 0,0 0,0" /></g><g
           transform="translate(445.2923,681.6362)"
           id="g48"><path
             id="path50"
             style="fill:#1990f2;fill-opacity:1;fill-rule:nonzero;stroke:none"
             d="m 0,0 c 0,0 -3.928,-0.611 -9.651,-2.413 -2.834,-0.928 -6.101,-2.063 -9.411,-3.612 -1.687,-0.688 -3.31,-1.652 -4.994,-2.48 -1.625,-0.951 -3.267,-1.899 -4.82,-2.938 -1.492,-1.131 -3.096,-2.065 -4.405,-3.3 -1.358,-1.167 -2.715,-2.25 -3.803,-3.505 -1.154,-1.181 -2.25,-2.304 -3.081,-3.525 -0.869,-1.182 -1.782,-2.194 -2.339,-3.329 -0.622,-1.058 -1.192,-2.027 -1.697,-2.887 -0.379,-0.913 -0.71,-1.709 -0.981,-2.365 -0.547,-1.271 -0.859,-1.998 -0.859,-1.998 l -0.279,-0.649 c -2.406,-5.603 -8.9,-8.194 -14.503,-5.787 -5.603,2.407 -8.194,8.9 -5.787,14.503 0.407,0.949 0.968,1.85 1.585,2.617 0,0 0.799,0.981 2.198,2.697 0.702,0.837 1.555,1.853 2.534,3.019 1.099,1.035 2.339,2.203 3.691,3.477 1.295,1.314 2.953,2.419 4.612,3.656 1.63,1.285 3.497,2.368 5.422,3.451 1.877,1.171 3.949,2.055 6.01,2.985 2.03,1.005 4.233,1.603 6.333,2.389 2.137,0.681 4.296,1.221 6.395,1.748 2.134,0.394 4.183,0.912 6.21,1.139 4.015,0.635 7.766,0.843 10.95,0.96 C -4.32,4.023 -0.068,3.49 -0.068,3.49 0.898,3.378 1.591,2.504 1.478,1.537 1.386,0.739 0.755,0.126 0,0" /></g><g
           transform="translate(690.4149,719.6681)"
           id="g52"><path
             id="path54"
             style="fill:#1990f2;fill-opacity:1;fill-rule:nonzero;stroke:none"
             d="m 0,0 c 0,0 1.858,3.384 4.796,8.068 1.467,2.349 3.161,5.067 5.042,7.902 1.831,2.854 3.784,5.898 5.737,8.941 1.006,1.498 1.963,3.023 2.911,4.521 0.954,1.497 1.948,2.938 2.819,4.389 1.821,2.883 3.522,5.574 4.979,7.881 1.498,2.352 2.746,4.312 3.62,5.684 0.915,1.382 1.505,2.166 1.505,2.166 0,0 -0.028,-0.958 -0.195,-2.627 -0.144,-1.677 -0.488,-4.051 -1.248,-6.804 -0.317,-1.403 -0.769,-2.883 -1.345,-4.41 -0.531,-1.55 -1.101,-3.188 -1.892,-4.781 -1.417,-3.274 -3.22,-6.633 -5.294,-9.807 -1.019,-1.6 -2.126,-3.138 -3.246,-4.629 C 17.102,14.98 15.836,13.636 14.72,12.263 12.357,9.614 10.009,7.274 7.811,5.455 3.507,1.726 0,0 0,0" /></g><g
           transform="translate(458.9797,568.0625)"
           id="g56"><path
             id="path58"
             style="fill:#5e3621;fill-opacity:1;fill-rule:nonzero;stroke:none"
             d="M 0,0 H -6.869 V -105.21 H 0 c 15.922,0 40.585,2.029 40.585,52.293 C 40.585,-3.434 16.233,0 0,0 m 0,-107.551 h -37.464 v 2.341 c 6.713,0 11.083,7.024 11.083,17.639 v 69.932 C -26.381,-7.961 -30.596,0 -37.464,0 V 2.341 H 0 c 31.062,0 63.688,-9.522 63.688,-55.258 0,-46.517 -32.626,-54.634 -63.688,-54.634" /></g><g
           transform="translate(585.1857,553.9707)"
           id="g60"><path
             id="path62"
             style="fill:#5e3621;fill-opacity:1;fill-rule:nonzero;stroke:none"
             d="m 0,0 c -15.934,0 -25.708,-10.31 -25.708,-46.998 0,-36.821 9.774,-45.658 25.708,-45.658 15.8,0 25.44,8.837 25.44,45.658 C 25.44,-10.31 15.8,0 0,0 m 0,-94.665 c -29.457,0 -44.855,21.022 -44.855,47.667 0,26.512 15.398,49.006 44.855,49.006 29.457,0 44.855,-22.494 44.855,-49.006 0,-26.645 -15.398,-47.667 -44.855,-47.667" /></g><g
           transform="translate(775.9406,462.8525)"
           id="g64"><path
             id="path66"
             style="fill:#5e3621;fill-opacity:1;fill-rule:nonzero;stroke:none"
             d="M 0,0 V -2.341 H -43.552 V 0 c 6.557,0 11.239,4.527 11.239,16.234 v 84.605 L -71.805,-3.746 h -2.341 l -43.708,94.595 v -54.01 c 0,-9.053 1.25,-36.839 20.761,-36.839 v -2.341 h -45.736 V 0 c 21.229,0 22.634,27.941 22.634,36.839 v 57.756 c -5.776,10.302 -13.58,10.302 -17.483,10.615 v 2.341 h 35.278 l 39.024,-83.824 31.063,83.824 h 31.22 v -2.341 c -6.712,0 -12.019,-3.747 -12.019,-13.737 V 16.234 C -13.112,4.527 -6.712,0 0,0" /></g></g></g><text
       id="text70"
       style="font-variant:normal;font-weight:500;font-stretch:normal;font-size:73.084198px;font-family:Butler;-inkscape-font-specification:Butler-Medium;writing-mode:lr-tb;fill:#5e3621;fill-opacity:1;fill-rule:nonzero;stroke:none"
       transform="matrix(1,0,0,-1,418.4067,382.8994)"><tspan
         id="tspan68"
         y="0"
         x="0">G</tspan></text>
<text
       id="text74"
       style="font-variant:normal;font-weight:500;font-stretch:normal;font-size:62.1216011px;font-family:Butler;-inkscape-font-specification:Butler-Medium;writing-mode:lr-tb;fill:#5e3621;fill-opacity:1;fill-rule:nonzero;stroke:none"
       transform="matrix(1,0,0,-1,471.7578,382.8994)"><tspan
         id="tspan72"
         y="0"
         x="0 46.90181 83.305069 125.60988 148.16002 199.22397">OŚCINN</tspan></text>
<text
       id="text78"
       style="font-variant:normal;font-weight:500;font-stretch:normal;font-size:73.084198px;font-family:Butler;-inkscape-font-specification:Butler-Medium;writing-mode:lr-tb;fill:#5e3621;fill-opacity:1;fill-rule:nonzero;stroke:none"
       transform="matrix(1,0,0,-1,722.043,382.8994)"><tspan
         id="tspan76"
         y="0"
         x="0">Y</tspan></text>
<g
       id="g80"><g
         clip-path="url(#clipPath86)"
         id="g82"><g
           transform="translate(600.133,560.0978)"
           id="g88"><path
             id="path90"
             style="fill:#ffb450;fill-opacity:1;fill-rule:nonzero;stroke:none"
             d="m 0,0 -3.737,8.857 c -0.299,0.707 -1.385,0.875 -1.956,0.301 l -7.15,-7.181 c -0.631,-0.634 -0.101,-1.591 0.876,-1.605 1.757,-0.026 3.534,-0.171 5.32,-0.446 1.785,-0.275 3.51,-0.669 5.166,-1.169 C -0.56,-1.52 0.33,-0.782 0,0" /></g><g
           transform="translate(615.1249,553.262)"
           id="g92"><path
             id="path94"
             style="fill:#ffb450;fill-opacity:1;fill-rule:nonzero;stroke:none"
             d="m 0,0 0.111,9.41 c 0.009,0.751 -0.941,1.229 -1.71,0.86 L -11.236,5.647 C -12.087,5.239 -11.981,4.185 -11.071,3.883 -9.434,3.34 -7.826,2.679 -6.264,1.894 -4.702,1.109 -3.246,0.23 -1.896,-0.728 -1.146,-1.26 -0.01,-0.831 0,0" /></g><g
           transform="translate(626.3931,542.4239)"
           id="g96"><path
             id="path98"
             style="fill:#ffb450;fill-opacity:1;fill-rule:nonzero;stroke:none"
             d="m 0,0 3.946,8.792 c 0.315,0.701 -0.381,1.43 -1.253,1.311 L -8.232,8.614 C -9.196,8.482 -9.527,7.463 -8.797,6.911 -7.483,5.918 -6.245,4.824 -5.101,3.626 -3.956,2.429 -2.95,1.174 -2.075,-0.123 -1.589,-0.843 -0.348,-0.776 0,0" /></g><g
           transform="translate(632.5352,528.932)"
           id="g100"><path
             id="path102"
             style="fill:#ffb450;fill-opacity:1;fill-rule:nonzero;stroke:none"
             d="m 0,0 7.29,7.079 c 0.582,0.565 0.226,1.454 -0.64,1.6 l -10.853,1.83 C -5.161,10.671 -5.887,9.813 -5.428,9.079 -4.601,7.76 -3.887,6.368 -3.303,4.907 -2.718,3.446 -2.287,1.972 -1.996,0.498 -1.834,-0.321 -0.644,-0.625 0,0" /></g><g
           transform="translate(570.4327,560.1412)"
           id="g104"><path
             id="path106"
             style="fill:#ffb450;fill-opacity:1;fill-rule:nonzero;stroke:none"
             d="m 0,0 3.773,8.846 c 0.301,0.706 1.388,0.87 1.956,0.296 L 12.85,1.939 C 13.479,1.303 12.946,0.348 11.969,0.337 10.211,0.316 8.433,0.177 6.647,-0.093 4.86,-0.363 3.134,-0.752 1.476,-1.247 0.554,-1.522 -0.333,-0.781 0,0" /></g><g
           transform="translate(555.4131,553.3493)"
           id="g108"><path
             id="path110"
             style="fill:#ffb450;fill-opacity:1;fill-rule:nonzero;stroke:none"
             d="m 0,0 -0.073,9.41 c -0.006,0.751 0.946,1.226 1.714,0.855 L 11.259,5.614 C 12.108,5.203 11.998,4.15 11.087,3.851 9.447,3.312 7.837,2.656 6.271,1.876 4.706,1.095 3.247,0.22 1.893,-0.733 1.141,-1.263 0.006,-0.831 0,0" /></g><g
           transform="translate(544.1012,542.544)"
           id="g112"><path
             id="path114"
             style="fill:#ffb450;fill-opacity:1;fill-rule:nonzero;stroke:none"
             d="m 0,0 -3.911,8.803 c -0.312,0.703 0.387,1.429 1.259,1.308 L 8.266,8.59 C 9.23,8.456 9.557,7.435 8.825,6.885 7.507,5.896 6.265,4.806 5.115,3.611 3.966,2.417 2.955,1.165 2.075,-0.129 1.586,-0.848 0.345,-0.777 0,0" /></g><g
           transform="translate(537.9046,529.0702)"
           id="g116"><path
             id="path118"
             style="fill:#ffb450;fill-opacity:1;fill-rule:nonzero;stroke:none"
             d="m 0,0 -7.261,7.1 c -0.58,0.567 -0.221,1.455 0.646,1.598 l 10.86,1.799 C 5.204,10.656 5.927,9.795 5.464,9.063 4.633,7.746 3.913,6.357 3.322,4.897 2.732,3.438 2.295,1.966 1.998,0.492 1.833,-0.327 0.641,-0.627 0,0" /></g><g
           transform="translate(600.1396,957.5135)"
           id="g120"><path
             id="path122"
             style="fill:#161451;fill-opacity:1;fill-rule:nonzero;stroke:none"
             d="m 0,0 c -197.678,0 -358.5,-160.822 -358.5,-358.5 0,-197.678 160.822,-358.5 358.5,-358.5 197.678,0 358.5,160.822 358.5,358.5 C 358.5,-160.822 197.678,0 0,0 m 0,-722 c -49.071,0 -96.676,9.611 -141.492,28.566 -43.285,18.309 -82.159,44.517 -115.541,77.9 -33.383,33.383 -59.592,72.257 -77.901,115.542 -18.955,44.816 -28.566,92.421 -28.566,141.492 0,49.071 9.611,96.676 28.566,141.491 18.309,43.286 44.518,82.16 77.901,115.542 33.382,33.383 72.256,59.592 115.541,77.9 C -96.676,-4.611 -49.071,5 0,5 c 49.071,0 96.676,-9.611 141.491,-28.567 43.286,-18.308 82.16,-44.517 115.542,-77.9 33.383,-33.382 59.592,-72.256 77.901,-115.542 18.955,-44.815 28.566,-92.42 28.566,-141.491 0,-49.071 -9.611,-96.676 -28.566,-141.492 -18.309,-43.285 -44.518,-82.159 -77.901,-115.542 -33.382,-33.383 -72.256,-59.591 -115.542,-77.9 C 96.676,-712.389 49.071,-722 0,-722" /></g><g
           transform="translate(614.5518,919.16)"
           id="g124"><path
             id="path126"
             style="fill:#161451;fill-opacity:1;fill-rule:nonzero;stroke:none"
             d="m 0,0 c -3.932,0.209 -7.914,0.349 -11.838,0.415 l 0.084,4.999 C -7.771,5.347 -3.727,5.206 0.266,4.993 Z m -35.524,-0.044 -0.28,4.992 c 3.988,0.222 8.033,0.374 12.022,0.451 L -23.687,0.4 c -3.928,-0.075 -7.911,-0.225 -11.837,-0.444 m 59.112,-2.085 c -3.892,0.496 -7.854,0.927 -11.775,1.281 l 0.45,4.98 c 3.982,-0.36 8.005,-0.797 11.958,-1.301 z m -82.696,-0.103 -0.645,4.958 c 3.959,0.514 7.982,0.962 11.954,1.331 l 0.461,-4.979 c -3.911,-0.363 -7.871,-0.804 -11.77,-1.31 M 46.955,-5.991 c -3.859,0.785 -7.778,1.508 -11.647,2.148 l 0.815,4.933 c 3.93,-0.65 7.909,-1.384 11.828,-2.181 z m -129.419,-0.163 -1.011,4.897 c 3.912,0.807 7.891,1.551 11.825,2.211 l 0.827,-4.932 c -3.873,-0.649 -7.79,-1.381 -11.641,-2.176 M 69.97,-11.577 c -3.786,1.069 -7.641,2.08 -11.456,3.007 l 1.179,4.859 c 3.875,-0.941 7.79,-1.969 11.636,-3.055 z m -175.434,-0.221 -1.371,4.809 c 3.842,1.095 7.754,2.133 11.627,3.083 l 1.191,-4.856 c -3.813,-0.935 -7.664,-1.957 -11.447,-3.036 m 198.001,-7.074 c -3.702,1.351 -7.481,2.651 -11.232,3.863 l 1.537,4.758 c 3.81,-1.231 7.649,-2.552 11.41,-3.924 z m -220.519,-0.266 -1.726,4.693 c 3.745,1.377 7.569,2.702 11.367,3.941 l 1.549,-4.754 c -3.739,-1.219 -7.503,-2.525 -11.19,-3.88 m 242.503,-8.699 c -3.587,1.622 -7.257,3.199 -10.906,4.687 l 1.889,4.629 c 3.705,-1.511 7.433,-3.112 11.078,-4.76 z m -264.383,-0.282 -2.069,4.552 c 3.627,1.648 7.332,3.25 11.013,4.761 l 1.898,-4.626 c -3.623,-1.487 -7.271,-3.064 -10.842,-4.687 m 285.629,-10.288 c -3.457,1.883 -6.997,3.728 -10.523,5.482 l 2.227,4.476 c 3.581,-1.781 7.176,-3.655 10.688,-5.568 z m -306.765,-0.281 -2.4,4.387 c 3.495,1.912 7.073,3.785 10.636,5.566 l 2.236,-4.472 c -3.507,-1.753 -7.031,-3.598 -10.472,-5.481 m 327.157,-11.829 c -3.302,2.13 -6.694,4.231 -10.082,6.243 l 2.553,4.299 c 3.441,-2.044 6.887,-4.177 10.24,-6.341 z m -347.469,-0.279 -2.716,4.197 c 3.352,2.17 6.784,4.303 10.202,6.34 l 2.56,-4.295 c -3.365,-2.006 -6.745,-4.106 -10.046,-6.242 m 366.905,-13.298 c -3.13,2.365 -6.357,4.708 -9.59,6.968 l 2.863,4.098 c 3.284,-2.294 6.561,-4.675 9.74,-7.076 z m -386.28,-0.281 -3.018,3.986 c 3.175,2.404 6.442,4.785 9.712,7.077 l 2.87,-4.095 c -3.22,-2.257 -6.438,-4.601 -9.564,-6.968 M 193.97,-79.059 c -2.952,2.592 -5.997,5.165 -9.049,7.651 l 3.158,3.877 c 3.099,-2.524 6.191,-5.138 9.19,-7.77 z m -422.989,-0.29 -3.303,3.754 c 2.991,2.631 6.076,5.247 9.171,7.775 l 3.163,-3.872 c -3.047,-2.49 -6.086,-5.066 -9.031,-7.657 m 440.21,-15.977 c -2.75,2.796 -5.595,5.585 -8.46,8.291 l 3.434,3.635 c 2.908,-2.748 5.799,-5.581 8.591,-8.42 z m -457.402,-0.309 -3.57,3.501 c 2.79,2.845 5.677,5.681 8.579,8.431 l 3.438,-3.63 c -2.857,-2.708 -5.699,-5.5 -8.447,-8.302 m 473.375,-17.171 c -2.544,2.998 -5.177,5.988 -7.825,8.886 l 3.691,3.373 c 2.69,-2.943 5.363,-5.979 7.947,-9.024 z m -489.333,-0.34 -3.817,3.23 c 2.579,3.048 5.25,6.09 7.94,9.041 l 3.695,-3.368 c -2.648,-2.906 -5.279,-5.901 -7.818,-8.903 m 503.975,-18.258 c -2.321,3.181 -4.726,6.354 -7.15,9.432 l 3.93,3.093 c 2.46,-3.125 4.902,-6.348 7.259,-9.578 z m -518.609,-0.385 -4.044,2.94 c 2.347,3.229 4.789,6.461 7.258,9.605 l 3.932,-3.087 c -2.43,-3.096 -4.834,-6.278 -7.146,-9.458 m 531.835,-19.229 c -2.074,3.335 -4.238,6.676 -6.431,9.928 l 4.144,2.796 c 2.229,-3.303 4.426,-6.696 6.533,-10.083 z m -545.061,-0.45 -4.25,2.634 c 2.105,3.396 4.302,6.8 6.532,10.118 l 4.15,-2.789 c -2.195,-3.267 -4.36,-6.619 -6.432,-9.963 m 556.799,-20.073 c -1.82,3.475 -3.731,6.963 -5.678,10.369 l 4.34,2.482 c 1.978,-3.459 3.919,-7.002 5.767,-10.53 z m -568.539,-0.538 -4.433,2.312 c 1.848,3.545 3.789,7.104 5.769,10.579 l 4.345,-2.475 c -1.95,-3.421 -3.861,-6.926 -5.681,-10.416 m 578.723,-20.782 c -1.556,3.592 -3.202,7.21 -4.893,10.753 l 4.511,2.154 c 1.718,-3.597 3.391,-7.272 4.97,-10.921 z m -588.907,-0.654 -4.592,1.976 c 1.578,3.669 3.25,7.364 4.969,10.984 l 4.517,-2.146 c -1.693,-3.564 -3.339,-7.202 -4.894,-10.814 m 597.49,-21.383 c -1.285,3.701 -2.662,7.44 -4.093,11.114 l 4.659,1.815 c 1.454,-3.732 2.852,-7.53 4.157,-11.289 z m -606.055,-0.764 -4.727,1.628 c 1.302,3.781 2.695,7.593 4.141,11.33 l 4.663,-1.803 c -1.423,-3.68 -2.795,-7.433 -4.077,-11.155 m 612.985,-21.882 c -1.011,3.802 -2.106,7.633 -3.255,11.387 l 4.781,1.464 c 1.167,-3.813 2.279,-7.705 3.306,-11.567 z m -619.867,-0.818 -4.836,1.271 c 1.016,3.864 2.118,7.758 3.275,11.576 l 4.785,-1.45 c -1.139,-3.759 -2.224,-7.593 -3.224,-11.397 m 625.094,-22.282 c -0.723,3.86 -1.531,7.763 -2.399,11.599 l 4.877,1.103 c 0.882,-3.896 1.701,-7.859 2.436,-11.78 z m -630.259,-0.831 -4.917,0.908 c 0.727,3.931 1.536,7.896 2.405,11.787 l 4.88,-1.091 c -0.856,-3.831 -1.653,-7.734 -2.368,-11.604 m 633.758,-22.592 c -0.436,3.904 -0.952,7.855 -1.533,11.744 l 4.945,0.739 c 0.59,-3.95 1.114,-7.963 1.557,-11.927 z m -637.196,-0.841 -4.971,0.542 c 0.434,3.98 0.948,7.994 1.526,11.932 l 4.947,-0.727 c -0.569,-3.876 -1.075,-7.828 -1.502,-11.747 m 638.963,-22.778 c -0.149,3.926 -0.373,7.905 -0.667,11.827 l 4.986,0.373 c 0.298,-3.982 0.526,-8.023 0.677,-12.01 z m -640.667,-0.845 -4.997,0.177 c 0.142,3.991 0.359,8.031 0.645,12.01 l 4.987,-0.36 c -0.282,-3.918 -0.496,-7.897 -0.635,-11.827 m 645.81,-23.587 -4.933,0.183 c 0.143,3.911 0.278,7.895 0.278,11.842 v 0.933 h 5 v -0.92 c 0,-4.02 -0.199,-8.066 -0.345,-12.038 m -650.787,-0.288 c -0.149,3.99 -0.225,8.036 -0.228,12.026 l 5,0.004 c 0.003,-3.93 0.079,-7.915 0.225,-11.845 z m 648.91,-23.698 -4.971,0.547 c 0.431,3.91 0.794,7.878 1.08,11.795 l 4.986,-0.364 c -0.29,-3.978 -0.659,-8.008 -1.095,-11.978 m -647.137,-0.289 c -0.44,3.966 -0.812,7.995 -1.106,11.976 l 4.987,0.369 c 0.289,-3.921 0.655,-7.889 1.089,-11.794 z m 643.624,-23.507 -4.916,0.912 c 0.718,3.867 1.372,7.798 1.945,11.683 l 4.947,-0.73 c -0.583,-3.946 -1.248,-7.938 -1.976,-11.865 m -640.09,-0.285 c -0.732,3.924 -1.4,7.915 -1.987,11.864 l 4.946,0.734 c 0.577,-3.888 1.235,-7.818 1.956,-11.681 z m 634.822,-23.188 -4.834,1.277 c 1.001,3.789 1.946,7.66 2.808,11.506 l 4.879,-1.095 c -0.876,-3.906 -1.836,-7.838 -2.853,-11.688 m -629.533,-0.278 c -1.022,3.858 -1.985,7.789 -2.863,11.684 l 4.878,1.1 c 0.864,-3.836 1.812,-7.706 2.818,-11.504 z m 622.523,-22.771 -4.727,1.632 c 1.283,3.715 2.518,7.517 3.669,11.301 l 4.783,-1.455 c -1.169,-3.843 -2.422,-7.705 -3.725,-11.478 m -615.505,-0.237 c -1.307,3.775 -2.56,7.623 -3.724,11.439 l 4.782,1.459 c 1.146,-3.757 2.38,-7.546 3.667,-11.262 z m 606.788,-22.25 -4.592,1.979 c 1.564,3.63 3.077,7.327 4.497,10.989 l 4.662,-1.808 c -1.442,-3.719 -2.978,-7.474 -4.567,-11.16 m -598.089,-0.141 c -1.576,3.65 -3.107,7.383 -4.55,11.097 l 4.66,1.812 c 1.421,-3.657 2.928,-7.334 4.48,-10.927 z m 587.725,-21.622 -4.431,2.316 c 1.828,3.499 3.611,7.071 5.3,10.617 l 4.513,-2.15 c -1.714,-3.601 -3.525,-7.229 -5.382,-10.783 m -577.402,-0.042 c -1.846,3.53 -3.65,7.143 -5.363,10.738 l 4.514,2.151 c 1.686,-3.539 3.462,-7.096 5.28,-10.572 z m 11.904,-20.854 c -2.103,3.387 -4.17,6.859 -6.146,10.319 l 4.343,2.479 c 1.945,-3.408 3.981,-6.826 6.051,-10.16 z m 553.555,-0.026 -4.248,2.637 c 2.073,3.339 4.115,6.768 6.069,10.19 l 4.342,-2.479 c -1.984,-3.475 -4.057,-6.957 -6.163,-10.348 m -540.14,-19.905 c -2.347,3.224 -4.666,6.536 -6.892,9.843 l 4.147,2.792 c 2.193,-3.257 4.476,-6.517 6.787,-9.692 z m 526.69,-0.068 -4.041,2.943 c 2.311,3.175 4.601,6.442 6.803,9.711 l 4.146,-2.793 c -2.235,-3.32 -4.56,-6.638 -6.908,-9.861 m -511.838,-18.83 c -2.58,3.044 -5.136,6.178 -7.601,9.314 l 3.932,3.089 c 2.426,-3.088 4.944,-6.173 7.484,-9.172 z m 496.962,-0.09 -3.814,3.233 c 2.546,3.005 5.069,6.093 7.496,9.18 l 3.929,-3.091 c -2.464,-3.134 -5.025,-6.271 -7.611,-9.322 m -480.757,-17.676 c -2.798,2.851 -5.579,5.789 -8.267,8.736 l 3.694,3.369 c 2.647,-2.901 5.386,-5.796 8.141,-8.602 z m 464.536,-0.092 -3.566,3.504 c 2.758,2.807 5.499,5.7 8.146,8.601 l 3.694,-3.371 c -2.69,-2.946 -5.474,-5.884 -8.274,-8.734 m -447.063,-16.443 c -2.996,2.633 -5.987,5.361 -8.889,8.108 l 3.436,3.632 c 2.859,-2.705 5.803,-5.392 8.754,-7.984 z m 429.59,-0.081 -3.299,3.757 c 2.951,2.593 5.895,5.276 8.751,7.977 l 3.435,-3.633 c -2.899,-2.742 -5.889,-5.468 -8.887,-8.101 m -410.943,-15.132 c -3.188,2.411 -6.372,4.912 -9.465,7.436 l 3.161,3.874 c 3.045,-2.484 6.181,-4.948 9.32,-7.322 z m 392.312,-0.057 -3.016,3.989 c 3.132,2.367 6.265,4.826 9.31,7.309 l 3.16,-3.875 c -3.094,-2.521 -6.275,-5.019 -9.454,-7.423 m -372.587,-13.748 c -3.356,2.169 -6.717,4.43 -9.991,6.721 l 2.867,4.097 c 3.223,-2.256 6.533,-4.483 9.838,-6.619 z m 352.897,-0.025 -2.713,4.2 c 3.29,2.125 6.594,4.347 9.818,6.602 l 2.865,-4.097 c -3.273,-2.29 -6.628,-4.546 -9.97,-6.705 m -20.638,-12.279 -2.397,4.389 c 3.448,1.881 6.904,3.852 10.272,5.856 l 2.556,-4.297 c -3.42,-2.035 -6.929,-4.036 -10.431,-5.948 m -311.557,-0.014 c -3.507,1.914 -7.029,3.922 -10.466,5.968 l 2.556,4.297 c 3.386,-2.015 6.852,-3.991 10.305,-5.876 z m 290.08,-10.701 -2.064,4.555 c 3.556,1.611 7.145,3.32 10.668,5.077 l 2.232,-4.475 c -3.578,-1.784 -7.224,-3.519 -10.836,-5.157 m -268.513,-0.053 c -3.641,1.65 -7.303,3.391 -10.885,5.177 l 2.231,4.475 c 3.527,-1.758 7.133,-3.473 10.717,-5.097 z m 246.282,-9.05 -1.721,4.695 c 3.694,1.354 7.408,2.795 11.041,4.283 l 1.895,-4.627 c -3.689,-1.512 -7.462,-2.975 -11.215,-4.351 m -223.96,-0.075 c -3.747,1.371 -7.532,2.836 -11.248,4.355 l 1.892,4.629 c 3.659,-1.496 7.384,-2.939 11.073,-4.288 z m 201.081,-7.361 -1.367,4.809 c 3.789,1.078 7.601,2.238 11.331,3.451 l 1.545,-4.756 c -3.789,-1.231 -7.661,-2.41 -11.509,-3.504 m -178.165,-0.068 c -3.851,1.092 -7.724,2.268 -11.511,3.496 l 1.542,4.756 c 3.728,-1.208 7.541,-2.367 11.333,-3.442 z m 154.799,-5.645 -1.006,4.899 c 3.856,0.792 7.744,1.666 11.554,2.597 l 1.188,-4.857 c -3.871,-0.946 -7.819,-1.834 -11.736,-2.639 m -131.427,-0.051 c -3.916,0.802 -7.866,1.687 -11.739,2.63 l 1.184,4.858 c 3.813,-0.929 7.701,-1.8 11.557,-2.589 z m 107.702,-3.911 -0.641,4.959 c 3.905,0.505 7.846,1.088 11.716,1.735 l 0.824,-4.932 c -3.93,-0.656 -7.934,-1.249 -11.899,-1.762 m -83.973,-0.032 c -3.954,0.507 -7.958,1.097 -11.901,1.752 l 0.82,4.932 c 3.882,-0.645 7.824,-1.226 11.718,-1.725 z m 60.023,-2.168 -0.276,4.992 c 3.923,0.216 7.898,0.508 11.814,0.867 l 0.457,-4.978 c -3.977,-0.365 -8.013,-0.661 -11.995,-0.881 m -36.07,-0.014 c -4.001,0.216 -8.038,0.51 -11.998,0.871 l 0.455,4.979 c 3.899,-0.355 7.873,-0.644 11.813,-0.857 z m 17.909,-0.484 c -1.968,0 -3.931,0.018 -5.891,0.052 l 0.088,5 c 3.943,-0.071 7.908,-0.069 11.849,0.005 l 0.092,-5 c -2.041,-0.037 -4.088,-0.056 -6.138,-0.057" /></g></g></g></g></svg>