<?xml version="1.0" encoding="iso-8859-1"?>
<!-- Generator: Adobe Illustrator 19.0.0, SVG Export Plug-In . SVG Version: 6.00 Build 0)  -->
<svg version="1.1" id="Layer_1" xmlns="http://www.w3.org/2000/svg" xmlns:xlink="http://www.w3.org/1999/xlink" x="0px" y="0px"
	 viewBox="0 0 150 150" style="enable-background:new 0 0 150 150;" xml:space="preserve">
<g>
	<path style="fill:#FBB03B;" d="M436.204,168.36H322.036v22.958h91.211c4.227,0,7.653,3.426,7.653,7.653s-3.427,7.653-7.653,7.653
		h-91.211v30.611h91.211c4.227,0,7.653,3.426,7.653,7.653s-3.427,7.653-7.653,7.653h-91.211v30.611h22.338
		c4.226,0,7.653,3.426,7.653,7.653s-3.426,7.653-7.653,7.653h-22.338v30.61h91.211c4.227,0,7.653,3.426,7.653,7.653
		s-3.427,7.653-7.653,7.653h-91.211v30.611h91.211c4.227,0,7.653,3.426,7.653,7.653s-3.427,7.653-7.653,7.653h-91.211V420.9h91.211
		c4.227,0,7.653,3.426,7.653,7.653s-3.427,7.653-7.653,7.653h-91.211v31.077l7.031,5.273l26.02-19.514
		c2.72-2.041,6.463-2.041,9.183,0l26.019,19.514l26.02-19.514c2.72-2.042,6.463-2.04,9.183,0l18.366,13.774V176.013
		C443.857,171.793,440.424,168.36,436.204,168.36z M413.246,298.456h-38.264c-4.227,0-7.653-3.426-7.653-7.653
		s3.426-7.653,7.653-7.653h38.264c4.227,0,7.653,3.426,7.653,7.653S417.473,298.456,413.246,298.456z"/>
	<path style="fill:#71D1D1;" d="M397.941,30.611c4.226,0,7.653,3.426,7.653,7.653c0,4.226-3.426,7.653-7.653,7.653h-7.653v15.305
		h30.611V15.306H300.353v15.305H397.941z"/>
	<rect x="146.476" y="15.306" style="fill:#A0E0E0;" width="153.877" height="15.305"/>
	<path style="fill:#D0F0F0;" d="M76.526,45.917h-7.653c-4.227,0-7.653-3.426-7.653-7.653s3.426-7.653,7.653-7.653h77.602V15.306
		H45.915v45.916h30.611V45.917z"/>
	<path style="fill:#FBB03B;" d="M300.353,68.875h44.019c4.227,0,7.653,3.426,7.653,7.653c0,4.226-3.426,7.653-7.653,7.653h-53.57
		v30.611h53.57c4.227,0,7.653,3.426,7.653,7.653s-3.426,7.653-7.653,7.653h-53.57v22.958h84.18V45.917h-84.18v22.958H300.353z"/>
	<path style="fill:#FCC062;" d="M206.622,329.067h76.527c4.227,0,7.653,3.426,7.653,7.653s-3.426,7.653-7.653,7.653h-76.527v30.611
		h115.414v-30.611h-8.275c-4.227,0-7.653-3.426-7.653-7.653s3.426-7.653,7.653-7.653h8.275v-30.61H206.622V329.067z"/>
	<path style="fill:#FCC062;" d="M244.886,436.205c-4.226,0-7.653-3.426-7.653-7.653s3.426-7.653,7.653-7.653h77.15v-30.611H206.622
		V420.9h7.653c4.227,0,7.653,3.426,7.653,7.653s-3.426,7.653-7.653,7.653h-7.653v36.35l26.021-19.514
		c2.722-2.041,6.463-2.041,9.184,0l26.016,19.514l26.021-19.514c2.72-2.041,6.461-2.041,9.183,0l18.989,14.241v-31.077h-77.15
		V436.205z"/>
	<path style="fill:#FCC062;" d="M198.97,130.097c-4.227,0-7.653-3.426-7.653-7.653c0-4.226,3.426-7.653,7.653-7.653h91.833V84.18
		H167.436v30.611h0.923c4.227,0,7.653,3.426,7.653,7.653s-3.426,7.653-7.653,7.653h-0.923v22.958h123.366v-22.958L198.97,130.097
		L198.97,130.097z"/>
	<rect x="167.436" y="45.916" style="fill:#FCC062;" width="123.366" height="22.958"/>
	<rect x="206.622" y="168.36" style="fill:#FCC062;" width="115.414" height="22.958"/>
	<path style="fill:#FCC062;" d="M206.622,206.623v30.611h45.915c4.227,0,7.653,3.426,7.653,7.653s-3.426,7.653-7.653,7.653h-45.915
		v30.611h115.414V252.54h-38.887c-4.227,0-7.653-3.426-7.653-7.653s3.426-7.653,7.653-7.653h38.887v-30.611L206.622,206.623
		L206.622,206.623z"/>
	<path style="fill:#FDD089;" d="M167.436,153.054v-22.958h-44.993c-4.227,0-7.653-3.426-7.653-7.653
		c0-4.226,3.426-7.653,7.653-7.653h44.993V84.18h-44.993c-4.227,0-7.653-3.426-7.653-7.653s3.426-7.653,7.653-7.653h24.033h20.96
		V45.917H91.832v153.054c0,4.22,3.433,7.653,7.652,7.653c4.22,0,7.653-3.433,7.653-7.653v-22.958
		c0-12.659,10.299-22.958,22.958-22.958L167.436,153.054L167.436,153.054z"/>
	<path style="fill:#71D1D1;" d="M122.443,176.013v22.958c0,2.683-0.467,5.258-1.316,7.653h16.622v-30.611
		c0-4.22-3.433-7.653-7.653-7.653S122.443,171.793,122.443,176.013z"/>
	<path style="fill:#FDD089;" d="M206.622,436.205h-22.957c-4.227,0-7.653-3.426-7.653-7.653s3.426-7.653,7.653-7.653h22.957v-30.611
		h-22.957c-4.227,0-7.653-3.426-7.653-7.653s3.426-7.653,7.653-7.653h22.957v-30.611h-22.957c-4.227,0-7.653-3.426-7.653-7.653
		s3.426-7.653,7.653-7.653h22.957v-30.61h-22.957c-4.227,0-7.653-3.426-7.653-7.653s3.426-7.653,7.653-7.653h22.957V252.54h-22.957
		c-4.227,0-7.653-3.426-7.653-7.653s3.426-7.653,7.653-7.653h22.957v-30.611h-22.957c-4.227,0-7.653-3.426-7.653-7.653
		s3.426-7.653,7.653-7.653h22.957V168.36h-54.88c0.849,2.395,1.312,4.971,1.312,7.653v290.804l18.367-13.775
		c1.36-1.02,2.976-1.531,4.591-1.531c1.616,0,3.231,0.51,4.592,1.531l26.018,19.514V436.205z"/>
	<path d="M436.204,153.054h-45.916V76.527h38.263c4.226,0,7.653-3.426,7.653-7.653V7.653c0-4.227-3.426-7.653-7.653-7.653H38.263
		c-4.226,0-7.653,3.426-7.653,7.653v61.222c0,4.226,3.426,7.653,7.653,7.653h38.264v122.443c0,12.659,10.299,22.958,22.958,22.958
		h38.264v260.192c0,2.899,1.638,5.549,4.23,6.845c1.083,0.541,2.255,0.808,3.421,0.808c1.626,0,3.242-0.518,4.593-1.531
		l26.02-19.514l26.018,19.514c2.721,2.04,6.461,2.041,9.183,0l26.021-19.514l26.017,19.514c2.719,2.04,6.462,2.041,9.183,0
		l26.021-19.514l26.02,19.514c2.72,2.041,6.463,2.041,9.183,0l26.02-19.514l26.019,19.514c2.719,2.04,6.462,2.041,9.183,0
		l26.02-19.514l26.019,19.514c2.318,1.739,5.42,2.019,8.014,0.723c2.592-1.296,4.23-3.946,4.23-6.845V176.013
		C459.162,163.353,448.863,153.054,436.204,153.054z M443.857,466.816l-18.366-13.774c-2.72-2.04-6.463-2.042-9.183,0l-26.02,19.514
		l-26.019-19.514c-2.72-2.041-6.463-2.041-9.183,0l-26.02,19.514l-7.031-5.273l-18.989-14.241c-2.722-2.041-6.463-2.041-9.183,0
		l-26.021,19.514l-26.016-19.514c-2.721-2.041-6.462-2.041-9.184,0l-26.021,19.514l-26.018-19.514
		c-1.361-1.02-2.976-1.531-4.592-1.531c-1.615,0-3.231,0.51-4.591,1.531l-18.367,13.775V176.013c0-2.682-0.462-5.258-1.312-7.653
		h54.88h115.414h114.168c4.22,0,7.653,3.433,7.653,7.653v290.803H443.857z M107.137,176.013v22.958c0,4.22-3.433,7.653-7.653,7.653
		s-7.652-3.433-7.652-7.653V45.917h75.604h123.366h84.18v107.138h-84.18H167.436h-37.341
		C117.436,153.054,107.137,163.353,107.137,176.013z M45.915,15.306h100.56h153.877h120.546v45.916h-30.611V45.917h7.653
		c4.226,0,7.653-3.426,7.653-7.653s-3.426-7.653-7.653-7.653h-97.588H146.476H68.873c-4.227,0-7.653,3.426-7.653,7.653
		c0,4.226,3.426,7.653,7.653,7.653h7.653v15.305H45.915V15.306z M137.748,176.013v30.611h-16.622c0.85-2.395,1.316-4.97,1.316-7.653
		v-22.958c0-4.22,3.433-7.653,7.652-7.653C134.315,168.36,137.748,171.793,137.748,176.013z"/>
	<path d="M344.372,84.18c4.227,0,7.653-3.426,7.653-7.653s-3.426-7.653-7.653-7.653h-44.019h-9.551H167.436h-20.96h-24.033
		c-4.227,0-7.653,3.426-7.653,7.653c0,4.226,3.426,7.653,7.653,7.653h44.993h123.366H344.372z"/>
	<path d="M176.012,122.444c0-4.226-3.426-7.653-7.653-7.653h-0.923h-44.993c-4.227,0-7.653,3.426-7.653,7.653
		s3.426,7.653,7.653,7.653h44.993h0.923C172.585,130.097,176.012,126.67,176.012,122.444z"/>
	<path d="M191.317,122.444c0,4.227,3.426,7.653,7.653,7.653h91.833h53.57c4.227,0,7.653-3.426,7.653-7.653
		c0-4.226-3.426-7.653-7.653-7.653h-53.57H198.97C194.743,114.791,191.317,118.217,191.317,122.444z"/>
	<path d="M206.622,191.318h-22.957c-4.227,0-7.653,3.426-7.653,7.653s3.426,7.653,7.653,7.653h22.957h115.414h91.211
		c4.227,0,7.653-3.426,7.653-7.653s-3.427-7.653-7.653-7.653h-91.211H206.622z"/>
	<path d="M275.495,244.887c0,4.227,3.426,7.653,7.653,7.653h38.887h91.211c4.227,0,7.653-3.426,7.653-7.653
		s-3.427-7.653-7.653-7.653h-91.211h-38.887C278.922,237.234,275.495,240.661,275.495,244.887z"/>
	<path d="M260.19,244.887c0-4.227-3.426-7.653-7.653-7.653h-45.915h-22.957c-4.227,0-7.653,3.426-7.653,7.653
		s3.426,7.653,7.653,7.653h22.957h45.915C256.763,252.54,260.19,249.114,260.19,244.887z"/>
	<path d="M413.246,283.151h-38.264c-4.227,0-7.653,3.426-7.653,7.653s3.426,7.653,7.653,7.653h38.264
		c4.227,0,7.653-3.426,7.653-7.653S417.473,283.151,413.246,283.151z"/>
	<path d="M183.664,283.151c-4.227,0-7.653,3.426-7.653,7.653s3.426,7.653,7.653,7.653h22.957h115.414h22.338
		c4.226,0,7.653-3.426,7.653-7.653s-3.426-7.653-7.653-7.653h-22.338H206.622H183.664z"/>
	<path d="M306.108,336.72c0,4.227,3.426,7.653,7.653,7.653h8.275h91.211c4.227,0,7.653-3.426,7.653-7.653s-3.427-7.653-7.653-7.653
		h-91.211h-8.275C309.534,329.067,306.108,332.493,306.108,336.72z"/>
	<path d="M290.802,336.72c0-4.227-3.426-7.653-7.653-7.653h-76.527h-22.957c-4.227,0-7.653,3.426-7.653,7.653
		s3.426,7.653,7.653,7.653h22.957h76.527C287.376,344.372,290.802,340.946,290.802,336.72z"/>
	<path d="M183.664,374.983c-4.227,0-7.653,3.426-7.653,7.653s3.426,7.653,7.653,7.653h22.957h115.414h91.211
		c4.227,0,7.653-3.426,7.653-7.653s-3.427-7.653-7.653-7.653h-91.211H206.622L183.664,374.983L183.664,374.983z"/>
	<path d="M176.012,428.553c0,4.227,3.426,7.653,7.653,7.653h22.957h7.653c4.227,0,7.653-3.426,7.653-7.653
		c0-4.227-3.426-7.653-7.653-7.653h-7.653h-22.957C179.438,420.9,176.012,424.326,176.012,428.553z"/>
	<path d="M237.233,428.553c0,4.227,3.426,7.653,7.653,7.653h77.15h91.211c4.227,0,7.653-3.426,7.653-7.653
		c0-4.227-3.427-7.653-7.653-7.653h-91.211h-77.15C240.66,420.9,237.233,424.326,237.233,428.553z"/>
</g>
<g>
</g>
<g>
</g>
<g>
</g>
<g>
</g>
<g>
</g>
<g>
</g>
<g>
</g>
<g>
</g>
<g>
</g>
<g>
</g>
<g>
</g>
<g>
</g>
<g>
</g>
<g>
</g>
<g>
</g>
</svg>
