<svg xmlns="http://www.w3.org/2000/svg" fill="#fff"  viewBox="0 0 24 24" width="24px" height="24px"><path fill="none" stroke="#fff" stroke-miterlimit="10" stroke-width="2" d="M7,5.463V20H4c-1.105,0-2-0.895-2-2V6.5	C2,5.119,3.119,4,4.5,4l0,0"/><path fill="none" stroke="#fff" stroke-miterlimit="10" stroke-width="2" d="M17,5.463V20h3c1.105,0,2-0.895,2-2V6.5	C22,5.119,20.881,4,19.5,4l0,0"/><polyline fill="none" stroke="#fff" stroke-miterlimit="10" stroke-width="2" points="2.14,7.83 12,15.53 21.86,7.83"/><path fill="none" stroke="#fff" stroke-miterlimit="10" stroke-width="2" d="M4.5,4c0.54,0,1.08,0.17,1.54,0.53L12,9.18	l5.96-4.65C18.42,4.17,18.96,4,19.5,4"/><path d="M22,8l-5,4V5c0,0,2.436-2.148,4.162-0.46C22.289,5.641,22,8,22,8z" opacity=".3"/><path d="M2,8l5,4V5c0,0-2.436-2.148-4.162-0.46C1.711,5.641,2,8,2,8z" opacity=".3"/></svg>