<svg width="728.25201" height="598.94268" xmlns="http://www.w3.org/2000/svg" data-name="Layer 1">

 <g>
  <title>Layer 1</title>
  <path id="svg_11" fill="#e4e4e4" d="m473.50001,447.58664c-99.80371,0 -181,-81.19629 -181,-181s81.19629,-181 181,-181a182.729,182.729 0 0 1 31.477,2.72754a0.99988,0.99988 0 1 1 -0.34522,1.96973a180.7818,180.7818 0 0 0 -31.13178,-2.69727c-98.70093,0 -179,80.29883 -179,179s80.29907,179 179,179s179,-80.29883 179,-179a178.54758,178.54758 0 0 0 -46.69507,-120.56884a1.0001,1.0001 0 0 1 1.478,-1.34766a180.544,180.544 0 0 1 47.217,121.9165c0.00007,99.8037 -81.19622,181 -180.99993,181z"/>
  <circle id="svg_12" fill="#1eb21e" r="35.81102" cy="111.85222" cx="553.30743"/>
  <path id="svg_13" fill="#fff" d="m548.42208,130.49019a3.98234,3.98234 0 0 1 -3.18647,-1.59372l-9.76979,-13.02661a3.98339,3.98339 0 1 1 6.37358,-4.77986l6.39173,8.52166l16.41634,-24.62418a3.98356,3.98356 0 0 1 6.629,4.41936l-19.53959,29.30938a3.98519,3.98519 0 0 1 -3.204,1.77267c-0.03687,0.00065 -0.07387,0.0013 -0.1108,0.0013z"/>
  <path id="svg_14" fill="#3f3d56" d="m468.84334,238.49772l-55.22364,-153.63085l1.40039,-0.50342l-10.15625,-28.25684l-1.40039,0.50391l-16.95605,-47.16944a14.25546,14.25546 0 0 0 -18.23731,-8.59326l-99.83252,35.88526a14.25569,14.25569 0 0 0 -8.59375,18.2373l11.82227,32.88934l-2.21271,0.85212l7.54676,19.5971l1.77136,-0.68219l1.567,4.35913l-1.88507,0.726l7.54676,19.5971l1.44372,-0.556l54.7359,152.27405a14.2297,14.2297 0 0 0 18.23779,8.59375l99.832,-35.88525a14.27289,14.27289 0 0 0 8.59374,-18.23781z"/>
  <path id="svg_15" fill="#fff" d="m355.16707,287.55734a6.84506,6.84506 0 0 1 -6.42432,-4.52441l-83.20459,-231.47414a6.83147,6.83147 0 0 1 4.11768,-8.73877l21.24121,-7.63525l-0.03174,0.74316a7.87374,7.87374 0 0 0 10.52978,7.74219l47.14063,-16.94478a7.97439,7.97439 0 0 0 4.48779,-5.63623a7.8083,7.8083 0 0 0 -1.86084,-6.835l-0.49756,-0.55323l21.94092,-7.8872a6.8404,6.8404 0 0 1 8.73926,4.11816l79.38472,220.8457a18.147,18.147 0 0 1 -10.92675,23.188l-92.32125,33.18554a6.84154,6.84154 0 0 1 -2.31494,0.40626z"/>
  <path id="svg_16" d="m347.03341,122.5076c-14.91713,0 -27,-12.08287 -27,-27c0,-14.91713 12.08287,-27 27,-27c14.91713,0 27,12.08287 27,27c0,14.91713 -12.08287,27 -27,27z" opacity="undefined" fill="#1f2937"/>
  <path id="svg_17" fill="#e6e6e6" d="m413.93908,135.64158l-93.50226,33.60994a2.36173,2.36173 0 1 1 -1.59779,-4.445l93.50227,-33.60994a2.36173,2.36173 0 0 1 1.59778,4.445z"/>
  <path id="svg_18" fill="#e6e6e6" d="m386.17201,156.95178l-30.75552,11.05525a2.36185,2.36185 0 1 1 -1.59787,-4.44523l30.75552,-11.05526a2.36185,2.36185 0 0 1 1.59787,4.44524z"/>
  <path id="svg_19" fill="#e6e6e6" d="m393.48724,177.30261l-30.75552,11.05525a2.36184,2.36184 0 1 1 -1.59786,-4.44523l30.75552,-11.05529a2.36184,2.36184 0 0 1 1.59786,4.44523l0,0.00004z"/>
  <path id="svg_20" fill="#e6e6e6" d="m397.23401,187.72607l-30.75552,11.05527a2.36173,2.36173 0 1 1 -1.59778,-4.445l30.75552,-11.05525a2.36173,2.36173 0 1 1 1.59779,4.445l-0.00001,-0.00002z"/>
  <path id="svg_21" fill="#e6e6e6" d="m407.02701,160.78426l-65.25284,23.45552a2.36173,2.36173 0 1 1 -1.59779,-4.445l65.25284,-23.45552a2.36173,2.36173 0 1 1 1.59779,4.445z"/>
  <path id="svg_22" fill="#6c63ff" d="m393.88355,213.02947l-11.16718,4.01411a4.01609,4.01609 0 0 1 -2.717,-7.55869l11.16718,-4.01411a4.01609,4.01609 0 0 1 2.717,7.55869z"/>
  <circle id="svg_23" fill="#fff" r="1.55299" cy="34.38035" cx="305.88244"/>
  <path id="svg_42" fill="#fff" d="m635.77201,467.38005a22.25269,22.25269 0 0 1 9.54545,-13.11029c0.46765,-0.29822 -0.01979,-1.00826 -0.48688,-0.7104a23.14626,23.14626 0 0 0 -9.90518,13.66264c-0.13924,0.53752 0.70812,0.69265 0.84661,0.15805z"/>
  <path id="svg_44" fill="#3f3d56" d="m725.69655,333.10134l-28.94,48.7l1.1,0.58l-9.8,18.58l-2.04,-1.08l-6.44,10.83l1.6,0.92l-10.5,18.18l-1.82,-1.05l-94.43,158.92a18.27388,18.27388 0 0 1 -25.02,6.37l-175.55003,-104.31a18.27169,18.27169 0 0 1 -6.37,-25.02l151.27,-254.58a18.274,18.274 0 0 1 25.02,-6.37l175.55,104.31a18.28057,18.28057 0 0 1 6.37003,25.02z"/>
  <path id="svg_45" fill="#fff" d="m555.66307,584.22434l-176.16842,-104.67652a5.6339,5.6339 0 0 1 -1.96328,-7.71245l152.27382,-256.27366a5.63389,5.63389 0 0 1 7.71245,-1.96328l176.16837,104.67653a5.63389,5.63389 0 0 1 1.96329,7.71245l-152.27378,256.27366a5.6339,5.6339 0 0 1 -7.71245,1.96327z"/>
  <circle id="svg_46" fill="#fff" r="1.55299" cy="260.33322" cx="628.02812"/>
  <path id="svg_47" fill="#e6e6e6" d="m618.41701,445.46485l-147.05665,-87.37874a4.066,4.066 0 1 1 4.15392,-6.99095l147.05661,87.37874a4.066,4.066 0 1 1 -4.15392,6.99095l0.00004,0z"/>
  <path id="svg_48" fill="#e6e6e6" d="m559.69834,431.92534l-48.371,-28.74133a4.06616,4.06616 0 1 1 4.15411,-6.99128l48.371,28.74132a4.06616,4.06616 0 0 1 -4.15411,6.99129z"/>
  <path id="svg_49" fill="#e6e6e6" d="m540.68029,463.93234l-48.371,-28.74133a4.06616,4.06616 0 0 1 4.15411,-6.99128l48.371,28.74132a4.06616,4.06616 0 1 1 -4.15411,6.99129z"/>
  <path id="svg_50" fill="#e6e6e6" d="m530.93947,480.3259l-48.371,-28.74132a4.066,4.066 0 1 1 4.15391,-6.991l48.371,28.74133a4.066,4.066 0 1 1 -4.15391,6.99095l0,0.00004z"/>
  <path id="svg_51" fill="#e6e6e6" d="m577.45076,463.82326l-102.627,-60.97939a4.066,4.066 0 0 1 4.15391,-6.99095l102.627,60.97939a4.066,4.066 0 1 1 -4.15391,6.99095z"/>
  <path id="svg_52" fill="#1f2937" d="m557.8901,541.75501l-17.5633,-10.43584a6.91412,6.91412 0 0 1 7.06367,-11.888l17.56329,10.43584a6.91411,6.91411 0 0 1 -7.06366,11.888z"/>
  <circle id="svg_53" fill="#1f2937" r="36" cy="336.31445" cx="590.65864"/>
  <path id="svg_54" fill="#cacaca" d="m0.42401,482.60551l487.18082,0l0,-282.04809a7.98,7.98 0 0 0 -7.971,-7.97078l-471.23882,0a7.98,7.98 0 0 0 -7.971,7.97078l0,282.04809z"/>
  <rect id="svg_55" fill="#fff" height="259.49057" width="457.07652" y="203.61075" x="18.95443"/>
  <path id="svg_56" fill="#3f3d56" d="m0.00001,474.97344l0,34.805a10.98729,10.98729 0 0 0 10.98725,10.98741l179.81463,0l0,68.68868l-2.38875,0a1.42719,1.42719 0 0 0 -1.42728,1.42723l0,4.77758a1.4272,1.4272 0 0 0 1.42728,1.42728l111.62656,0a1.42721,1.42721 0 0 0 1.42731,-1.42728l0,-4.77756a1.4272,1.4272 0 0 0 -1.42729,-1.42723l-2.38875,0l0,-68.68866l179.81461,0a10.98729,10.98729 0 0 0 10.98726,-10.98741l0,-34.805l-488.45283,-0.00004z"/>
  <path id="svg_57" fill="#e6e6e6" d="m406.41331,290.39434l-216.45386,0a5.145,5.145 0 1 1 0,-10.29l216.45386,0a5.145,5.145 0 1 1 0,10.29z"/>
  <path id="svg_58" fill="#e6e6e6" d="m333.78514,313.61988l-71.19776,0a5.14526,5.14526 0 1 1 0,-10.29052l71.19776,0a5.14526,5.14526 0 1 1 0,10.29052z"/>
  <path id="svg_59" fill="#e6e6e6" d="m333.78514,360.73121l-71.19776,0a5.14526,5.14526 0 0 1 0,-10.29053l71.19776,0a5.14526,5.14526 0 0 1 0,10.29053z"/>
  <path id="svg_60" fill="#e6e6e6" d="m333.78514,384.86109l-71.19776,0a5.145,5.145 0 1 1 0,-10.29l71.19776,0a5.145,5.145 0 1 1 0,10.29z"/>
  <path id="svg_61" fill="#e6e6e6" d="m373.71507,336.84498l-151.05762,0a5.145,5.145 0 1 1 0,-10.29l151.05762,0a5.145,5.145 0 1 1 0,10.29z"/>
  <path id="svg_62" fill="#1f2937" d="m402.80955,433.39632l-25.85154,0a8.749,8.749 0 0 1 0,-17.49805l25.85156,0a8.749,8.749 0 0 1 0,17.49805l-0.00002,0z"/>
  <circle id="svg_63" fill="#1f2937" r="45" cy="325.76588" cx="121.89451"/>
  <path id="svg_64" fill="#cacaca" d="m648.48471,598.94268l-647.294,0a1.19069,1.19069 0 0 1 0,-2.38137l647.294,0a1.19069,1.19069 0 0 1 0,2.38137z"/>
  <circle id="svg_65" fill="#fff" r="1.69602" cy="196.40268" cx="243.80241"/>
  <path id="svg_66" d="m688.47517,447.48826" opacity="NaN" fill="#fff"/>
 </g>
</svg>