<svg id="visual" viewBox="0 0 900 200" width="900" height="200" xmlns="http://www.w3.org/2000/svg" xmlns:xlink="http://www.w3.org/1999/xlink" version="1.1"><path d="M0 136L21.5 136C43 136 86 136 128.8 133.7C171.7 131.3 214.3 126.7 257.2 125.3C300 124 343 126 385.8 126C428.7 126 471.3 124 514.2 124.7C557 125.3 600 128.7 642.8 128C685.7 127.3 728.3 122.7 771.2 124.8C814 127 857 136 878.5 140.5L900 145L900 201L878.5 201C857 201 814 201 771.2 201C728.3 201 685.7 201 642.8 201C600 201 557 201 514.2 201C471.3 201 428.7 201 385.8 201C343 201 300 201 257.2 201C214.3 201 171.7 201 128.8 201C86 201 43 201 21.5 201L0 201Z" fill="#1f2937"></path><path d="M0 156L21.5 156.2C43 156.3 86 156.7 128.8 152.5C171.7 148.3 214.3 139.7 257.2 139.8C300 140 343 149 385.8 150.8C428.7 152.7 471.3 147.3 514.2 145.5C557 143.7 600 145.3 642.8 145.3C685.7 145.3 728.3 143.7 771.2 142.8C814 142 857 142 878.5 142L900 142L900 201L878.5 201C857 201 814 201 771.2 201C728.3 201 685.7 201 642.8 201C600 201 557 201 514.2 201C471.3 201 428.7 201 385.8 201C343 201 300 201 257.2 201C214.3 201 171.7 201 128.8 201C86 201 43 201 21.5 201L0 201Z" fill="#223f63"></path><path d="M0 159L21.5 159.8C43 160.7 86 162.3 128.8 163.3C171.7 164.3 214.3 164.7 257.2 162.2C300 159.7 343 154.3 385.8 154.7C428.7 155 471.3 161 514.2 161.8C557 162.7 600 158.3 642.8 155.3C685.7 152.3 728.3 150.7 771.2 149.5C814 148.3 857 147.7 878.5 147.3L900 147L900 201L878.5 201C857 201 814 201 771.2 201C728.3 201 685.7 201 642.8 201C600 201 557 201 514.2 201C471.3 201 428.7 201 385.8 201C343 201 300 201 257.2 201C214.3 201 171.7 201 128.8 201C86 201 43 201 21.5 201L0 201Z" fill="#235592"></path><path d="M0 175L21.5 172.5C43 170 86 165 128.8 163.7C171.7 162.3 214.3 164.7 257.2 165.5C300 166.3 343 165.7 385.8 165.3C428.7 165 471.3 165 514.2 166.5C557 168 600 171 642.8 171.7C685.7 172.3 728.3 170.7 771.2 170.3C814 170 857 171 878.5 171.5L900 172L900 201L878.5 201C857 201 814 201 771.2 201C728.3 201 685.7 201 642.8 201C600 201 557 201 514.2 201C471.3 201 428.7 201 385.8 201C343 201 300 201 257.2 201C214.3 201 171.7 201 128.8 201C86 201 43 201 21.5 201L0 201Z" fill="#296cc3"></path><path d="M0 190L21.5 188.3C43 186.7 86 183.3 128.8 181.5C171.7 179.7 214.3 179.3 257.2 179.2C300 179 343 179 385.8 178.8C428.7 178.7 471.3 178.3 514.2 178.8C557 179.3 600 180.7 642.8 181.7C685.7 182.7 728.3 183.3 771.2 182.5C814 181.7 857 179.3 878.5 178.2L900 177L900 201L878.5 201C857 201 814 201 771.2 201C728.3 201 685.7 201 642.8 201C600 201 557 201 514.2 201C471.3 201 428.7 201 385.8 201C343 201 300 201 257.2 201C214.3 201 171.7 201 128.8 201C86 201 43 201 21.5 201L0 201Z" fill="#3b82f6"></path></svg>